<?xml version="1.0" encoding="utf-8"?>
<!-- Generator: Adobe Illustrator 27.7.0, SVG Export Plug-In . SVG Version: 6.00 Build 0)  -->
<svg version="1.1" id="Calque_1" xmlns="http://www.w3.org/2000/svg" xmlns:xlink="http://www.w3.org/1999/xlink" x="0px" y="0px"
	 viewBox="0 0 226.8 187" style="enable-background:new 0 0 226.8 187;" xml:space="preserve">
<style type="text/css">
	.st0{fill:#F5E1AB;}
</style>
<path class="st0" d="M128.1,157.7l49.4-124.4l-11.9,5L180.7,0h-30.7l-15.7,65.2l21-8.8l-37.9,117.8h16.7l9.1-22.8L128.1,157.7z
	 M119.2,150l26.7-83.2l-17,7.1L122.3,44l-5.5,56.9l13.3-5.6L119.2,150z M143,3.9h-23.5l11.3,50.8L143,3.9z M168.7,71.5l-29.9,75.4
	l15.2-6.3l-13.8,34.9l34.1-53.9l-16.2,6.7L189,63L168.7,71.5z M156,174.2h20.7l-4.5-20.9L156,174.2z M204.3,84.1l18.5-39.1
	l-23.5,9.8l-22.1,46.6l21.9-9.1L186,113.2l8.3,3.4l32.5-41.9L204.3,84.1z M172.2,135l-32.7,52l34.4-44.3L172.2,135z M202,115l22,9.2
	l-0.8-36.5L202,115z M2.8,124.2l22-9.2L3.5,87.8L2.8,124.2z M86.7,175.5l-13.8-34.9l15.2,6.3L58,71.5L37.8,63l31,65.3l-16.2-6.7
	L86.7,175.5z M107.3,3.9H83.7l12.2,50.8L107.3,3.9z M97.9,73.9l-17-7.1l26.7,83.2L96.6,95.4l13.3,5.6L104.4,44L97.9,73.9z
	 M27.5,54.9L4,45.1l18.5,39.1L0,74.8l32.5,41.9l8.3-3.4L27.7,92.4l21.9,9.1L27.5,54.9z M92.4,65.2L76.7,0H46l15.2,38.3l-11.9-5
	l49.4,124.4l-15.2-6.3l9.1,22.8h16.7L71.4,56.5L92.4,65.2z M50,174.2h20.7l-16.2-20.9L50,174.2z M52.9,142.8L87.2,187l-32.7-52
	L52.9,142.8z"/>
</svg>
