<?xml version="1.0" encoding="utf-8"?>
<!-- Generator: Adobe Illustrator 27.6.1, SVG Export Plug-In . SVG Version: 6.00 Build 0)  -->
<svg version="1.1" id="Layer_1" xmlns="http://www.w3.org/2000/svg" xmlns:xlink="http://www.w3.org/1999/xlink" x="0px" y="0px"
	 viewBox="0 0 666 327.1" style="enable-background:new 0 0 666 327.1;" xml:space="preserve">
<style type="text/css">
	.st0{fill:#F6E2AC;}
</style>
<g>
	<path id="T" class="st0" d="M627.8,66.6c-1.3,0.9-2.2,2.2-3.5,3c-0.9,0.4-2.2,1.7-3.5,0.4h-0.4c-6.1,1.3-13,0.4-18.2,3
		c-0.9,5.2-1.7,9.5-2.6,13.8c0,1.3-0.4,3,0.4,3.9c1.3,2.6,0.4,4.8-0.4,6.9c-2.6,7.8-4.8,15.6-6.5,23.4c-0.4,1.7-0.9,3.5-1.7,4.8
		c-1.7,2.6-1.3,5.2-0.9,8.2c0.4,2.2,1.3,4.3,1.7,6.9c0.9,2.6,0,5.2-1.3,6.9c-3,4.3-3.5,9.5-4.8,14.3c-0.4,2.2-0.9,4.8-1.3,6.9
		s-1.3,4.3-2.2,6.1c-3,4.8-6.5,9.1-9.5,13.8c-1.3,2.2-2.2,4.8-3,6.9c-0.4,2.2-0.4,4.3-0.9,6.5c0,2.6-0.4,4.8-1.3,6.9
		c-0.4,0.9-0.9,2.6-0.4,3.5c1.3,2.2,0.4,3.9-0.4,5.6c-1.7,2.6-1.7,5.2-1.7,7.8c0,3.9-0.4,7.8-2.6,11.2c-0.9,1.7-0.4,4.8,0,6.9
		c0.4,3.5,1.3,6.9-1.3,10.4c-1.7,2.2-1.7,5.2-2.2,8.2c-0.4,2.2-0.9,3.9-2.6,5.6c-1.7,1.7-2.2,3.5-3,5.6c-0.9,3-2.2,6.1-3.5,9.1
		c-1.3,2.2-1.7,4.3-1.3,6.9c0.4,3.9,0,7.8-3.5,10.8c-0.4,0.4-0.9,1.3-1.3,2.2c-2.6,7.8-6.5,15.1-10.8,23.4c-0.4-4.8-0.4-8.2,0-12.1
		c0.4-6.1,0.9-12.1,0.9-17.7c0-4.8,0-9.5,0-13.8c0-2.2,0.4-3.9,1.7-5.2c1.3-1.7,1.7-3.5,1.7-5.2c0-4.8-0.4-9.1,1.7-13.4
		c0.4-0.9,0-1.7,0-2.6c-0.4-6.9,1.3-13.4,2.2-19.9c0-0.9,0.4-1.7,0.9-3c0.9-1.7,1.3-3,2.2-4.8c2.2-4.3,3-8.7,1.3-13.4
		c-0.9-2.2,0-5.6,0.9-7.8c1.7-4.8,2.2-10.4,3.9-15.1c0.9-2.6,2.2-4.8,2.2-7.8c0-2.6-0.9-5.2,0-7.4c0.9-2.6,2.2-4.8,3-6.9
		c0.4-0.9,0-2.2,0-3c0-5.2,0-10.8,0-16c0-3,0.9-6.1,0.9-9.1c0-1.7,0.4-3.9-0.9-5.6c0-0.4,0-0.9,0-0.9c0-0.9-0.4-1.3,0-2.2
		c1.7-3.5,0-7.8,1.7-11.7c1.3-2.6,2.2-6.1,2.2-8.7c0-3.5-0.4-7.4-1.3-10.8c-0.9-4.3-0.9-8.2-0.4-12.1c0-1.7,1.3-3,1.7-4.8
		c1.3-2.2,1.7-4.3,0.4-6.9c-0.4-0.4-0.4-1.3-0.4-2.2c-0.4-3.9-0.4-3.9-3.9-3.9c-1.7,0-3,0-4.3-0.9c-3-2.2-7.4-1.3-10.8-2.6
		c-0.4,0-0.9,0.4-1.3,0.4c-0.4,0.4-1.3,0.9-1.7,0.9c-4.3-0.9-9.1-1.7-13.4-2.6c-0.9,0-2.2-0.4-3-0.4c-5.2,0-10.4-1.3-15.6-1.7
		c-4.3-0.4-9.1-1.3-13.4,1.3c-1.7,0.9-3.5,0.4-5.2,0c-2.2-0.9-3.9-0.9-6.1-0.4c-4.3,0.9-8.7,0-12.5-3c-2.2-1.3-4.3-2.2-6.5-2.2
		c-0.9,0-2.2,0-2.2-1.3s0.9-1.7,1.7-2.2c0.9-0.4,1.3-0.9,2.2-0.9c2.2-0.9,4.3-1.3,5.6-3.5c1.3-1.7,3-1.7,4.8-0.9
		c3,1.3,5.6,1.7,8.7,0.9c1.3-0.4,2.6,0,4.3,0c2.6,0,4.8,0.4,6.5-2.6c1.3-2.6,5.2-2.2,7.8-1.3c4.3,0.9,9.1,0.9,13.4,0.9
		c2.6,0,4.8,1.3,7.4,0.4s5.6-0.4,8.2-0.4c2.6,0,5.2,0,7.8,0s5.6,0,8.2,0c2.6,0,5.2,0,7.8,0c2.2,0,3.9-0.4,6.1-0.9
		c1.3-0.4,3-0.9,4.3-0.9c0.9,0,2.2,0,2.6-0.4c2.6-3.5,6.1-2.2,8.7-1.3c3,0.9,5.6,0.9,8.7,0c6.1-1.7,12.1-1.7,18.2-1.3
		c2.6,0,5.2,1.7,7.8,2.2c5.2,1.3,10,0.9,14.7-0.4c2.6-0.9,5.2-0.9,7.8,0c0.9,0.4,2.2,0.4,3,0.4c5.2-0.9,10.8-1.7,16-3
		c2.2-0.4,4.8-1.3,6.9-1.7c2.2-0.4,3.9-0.9,5.6,0.9c1.3,1.3,1.7,2.2,1.3,3.5c-0.9,3-1.7,6.1-4.8,7.4c-2.2,0.9-2.6,3-3.5,4.8
		c-0.4,0.9,0,1.7-0.4,2.6c-2.6,5.2-4.8,6.5-10.4,4.3c-2.6-0.9-4.8-0.9-6.9,0.9c-0.4,0.4-0.4,0.4-0.9,0.9
		C632.5,70.1,632.5,70.1,627.8,66.6z"/>
	<path id="S" class="st0" d="M504.5,132.8c4.3-0.4,7.4,0,8.7,3.9c0,0.4,0.9,0.9,1.3,0.9c3.9,1.7,5.2,5.2,7.8,8.2
		c0.9,0.9,1.3,2.2,2.6,3c3,2.6,6.1,4.8,9.1,7.8c2.2,2.2,3.9,4.8,5.2,7.4c2.2,4.3,4.3,9.1,6.1,13.8c0.9,2.2,0,5.2,0.9,7.8
		c0.4,2.2-0.4,4.8-0.9,6.9c-0.9,3.5-2.2,6.9-1.7,10.8c0,0.4,0,1.3-0.4,1.7c-2.6,3-3.5,6.9-5.2,10.4c-0.4,0.9-1.3,1.7-1.7,2.2
		c-3,3-6.5,5.6-8.7,9.1c-2.2,3-5.2,5.6-8.2,8.2c-0.4,0.4-0.9,0.9-1.3,0.9c-6.9,2.2-13.8,5.2-20.8,6.1c-2.6,0.4-5.2,0-7.4-0.9
		c-3.9-1.3-8.2-0.9-12.1-1.7c-0.9,0-1.7,0-2.6-0.4c-2.6-2.6-5.6-2.2-8.7-2.6c-6.5-0.9-12.1-3.5-15.6-9.5c-2.2-3.9-5.6-6.9-7.4-11.2
		c0-0.4-0.9-0.9-1.3-0.9c-3,0-5.2-1.7-6.5-4.3c-0.9-1.3-2.2-1.7-3-3c-2.2-3.5-2.6-7.4-3.5-10.8c0-1.3-0.4-2.2-0.4-3.5
		c0-0.9-0.4-2.2,0-3c0.4-0.9,3.5-0.4,4.8,0.4c0.9,0.9,2.2,2.6,3.5,2.6c3.5,0.9,5.2,3,7.4,6.1c3.9,5.6,9.1,9.5,16,11.2
		c0.9,0,1.7,0.4,2.2,0.9c1.3,0.9,2.6,1.3,3.9,2.2c5.6,3.5,12.1,3.5,18.2,3.9c2.6,0.4,5.2,0.9,8.2,0.9c2.6,0.4,4.8-0.9,6.9-2.6
		c3-3,6.1-6.1,9.5-8.7c1.3-1.3,2.2-2.2,1.7-3.9c-0.4-4.3,1.7-7.8,4.3-11.2c0.9-0.9,1.3-1.7,0.4-3c-1.3-3-1.3-6.1-2.6-9.1
		c-1.7-4.3-4.3-8.2-7.8-11.2c-2.2-1.7-5.6-2.6-8.2-3c-2.6,0-4.3-1.3-6.1-2.6c-0.9-0.9-1.7-1.7-3.5-1.7c-3,0-5.6-1.3-7.8-3.5
		s-4.3-3.9-6.9-5.6c-0.4-0.4-1.3-0.4-1.3-0.9c-2.6-5.6-7.8-10-9.5-16c-1.7-4.8-3.9-9.5-4.3-14.7c0-0.9-0.4-1.7-0.9-2.2
		c-1.7-2.2-1.7-5.2-0.9-7.4c2.2-6.1,3.5-12.5,7.8-17.7c4.3-4.8,7.4-10.8,13.4-13.4c0.9-0.4,1.7-1.7,2.6-2.6c2.6-2.6,5.6-3.9,9.1-4.8
		c5.2-1.3,10-0.9,15.1,0.9c0.9,0.4,2.2,0.4,3,0.4c5.2,0,10,0.9,15.1,2.2c5.2,0.9,8.7,4.8,11.7,9.1c0.4,0.4,0.4,0.9,0.4,1.3
		c3.9,6.1,5.2,12.5,6.1,19.5c0.4,3,1.3,6.1,0.9,9.1c-0.4,4.3-2.2,6.1-6.9,6.5c-4.8,0.4-7.8-2.2-10-6.1c-1.7-3-3-6.1-3.5-9.5
		c-0.4-3-2.6-4.3-4.3-5.6c-0.4-0.4-1.3-0.4-1.3-0.4c-2.6,1.7-4.3,0-6.5-1.3c-5.6-2.6-10.8-1.3-15.6,1.3c-1.3,0.9-1.3,3-2.6,3.9
		c-0.9,0.9-3,1.3-3.9,2.2c-1.3,2.6-2.2,4.8-1.7,8.2c0.4,3,0.9,6.1,2.6,8.7c0.9,1.3,2.6,3.5,3.5,3.5c3,0,4.8,1.7,7.4,3.5
		C499.7,132,502.3,134.1,504.5,132.8z"/>
	<path id="F" class="st0" d="M379.9,72.7c-4.3-0.9-8.2,1.7-13,2.6c-1.3,0-2.2,1.7-3,2.6c-1.7,1.3-3.9,2.6-6.5,1.3
		c-2.2-0.9-4.8-0.4-6.9,0.9c-0.9,0.4-1.7,0.9-3,0.9c-5.2-0.4-10,0.4-14.7,0.9c-0.9,0-2.2,0.4-3,0.9c-1.3,0.4-2.2,0.9-1.7,2.6
		c0.4,2.2,0,4.3-1.3,6.1c-1.3,1.7-1.3,3.5-0.4,5.2c0.9,2.2,1.7,4.3,0.9,6.5c-0.9,1.7,1.3,3,3,2.2c2.2-0.9,3.9-1.7,6.1-0.4
		c1.3,0.9,3.5,0,5.2,0.4c2.2,0,4.3,0.4,6.5,0.4c1.3,0,2.2-0.4,3.5-0.4c5.2,0,10,0,15.1,0c2.2,0,3.5,2.2,2.6,4.3
		c-0.9,1.7-2.6,3-3,4.3c-0.9,3.5-3.9,4.8-6.1,6.9c-1.7,2.2-4.8,3-6.9,1.7c-3-1.7-5.6,0.4-8.2,0.4c-2.2,0.4-4.8,1.7-6.5,3.9
		c-1.3,2.2-3.5,3-6.1,3s-5.6,4.3-6.1,6.9c0,2.6,0.4,5.2-0.9,7.4c-0.4,0.4,0,1.3,0.4,1.7c2.6,4.3,1.7,8.7,0.9,13
		c0,0.9-0.4,1.3-0.4,2.2c0.4,3.9-0.9,7.4-3,10.8c-1.7,2.6-2.2,5.6,0,8.2c1.3,2.2,1.7,4.8,0.9,6.5c-1.7,4.3-0.9,8.7,0.4,12.5
		c1.3,3.5,0.4,6.5-0.9,9.5c-1.3,3.9-4.8,4.8-8.2,1.7c-1.3-1.3-3-2.6-4.8-3c-1.7-0.9-2.2-1.7-1.3-3c1.3-1.7,0.4-2.6-0.9-3.5
		c-4.3-3-3.9-3.5-3-8.7c1.3-6.1,1.3-11.7-1.7-17.3c-1.3-2.2-2.6-4.3-1.3-6.9c0.9-1.3,0.4-3,0.4-4.8c0-0.9-0.4-1.7-1.3-1.7
		c-2.2-1.3-2.2-3-3-5.2c-0.4-1.7-0.9-3.9-1.7-5.6c-3-6.1-3-12.5-0.9-19c0.9-3,1.3-6.5,1.7-9.5c0-0.9,0.4-2.2,0.9-3
		c1.7-2.6,1.3-4.8-0.4-6.9c-0.9-1.3-1.7-2.6-2.6-3.9c-2.6-3.5-2.2-7.4,0-10.8c1.7-2.6,1.7-5.2,0.9-7.8s-1.7-5.2-0.9-8.2
		c0.9-2.6,0-5.2-1.3-7.4c-1.7-3-2.2-6.1,0-9.1c0.9-0.9,0.9-2.6,1.3-3.9c0.9-5.2,1.7-6.1,6.9-7.4c0.9-0.4,2.2-0.9,3-1.7
		c2.6-2.2,6.1-1.7,9.1-1.3h0.4c2.2,1.3,4.3,0,6.5,0c2.2,0,3.9,1.7,6.1,2.6c0.4,0,0.9,0,1.7,0c3.9-0.9,7.8-2.2,11.7-3
		c3.5-0.9,6.5-1.7,10-0.4c3,0.9,6.1,0.9,9.1,1.3c5.6,0.9,11.7,0.9,17.3,0.9c1.7,0,3.5,0.9,5.6,0.9c3.9,0,7.8,0.9,11.2,0
		c4.3-0.9,8.7-0.4,13-0.9c3.5,0,6.5,0,9.5,1.3c0.9,0.4,1.7,0,2.2,0c3.5,0,6.5-0.9,9.5-0.4c1.7,0,3,1.7,4.8,3c0.4,0.4,0,2.2-0.4,2.2
		c-4.3,2.2-7.8,6.5-12.5,7.4c-3.5,0.9-7.4,1.3-10.8,2.2c-5.2,0.9-10.4,1.3-15.6,2.2c-0.9,0-1.7,0-2.6,0.4c-1.7,0.4-3,1.3-4.8,1.3
		C384.2,72.7,382.5,72.7,379.9,72.7z"/>
	<path id="LE" class="st0" d="M270.8,0c0.4,2.2,0.4,4.8,1.3,6.9c0,0.9,0.9,1.3,1.3,2.2c2.2,2.2,2.6,5.2,2.6,7.8
		c0,4.8,0.4,9.5,0.9,14.3c0,0.9,0.4,1.7,0.9,2.2c3.5,3.5,3.9,7.4,3.9,11.7c0,3.5-0.4,6.9,0,10.4c0.9,5.6,0,11.2,1.3,16.9
		c1.3,6.1,0,11.7-0.4,17.3c0,2.2,0,4.3,0.9,6.1c1.3,2.2,1.7,4.8,0.4,7.4c-0.9,2.2-0.4,5.2-0.9,7.8c0,1.7,0.4,3.9,0,5.6
		c-0.4,2.2-0.9,3.5,0,6.1c0.9,2.2,0.4,4.8,0,7.4c0,2.2,0.4,4.8-0.4,6.9c-0.9,3.5-0.4,6.1,0,9.5c0.9,8.7,3,16.4,5.2,24.7
		c0,0.4,0,0.9,0,0.9c0.4,4.8,0.4,10,1.3,14.7c0.4,2.6,0.9,5.2,2.2,7.8c0.9,2.2,1.3,3.9,0.4,6.1s-1.7,3.9-2.6,6.1s-2.2,4.3-1.7,6.1
		c0,2.2,1.3,4.3,2.6,6.5c0.9,1.3,2.2,2.6,3.9,2.2c3.5-0.9,7.4,0.4,10.4,1.3c2.2,0.9,3,0,3.9-1.3c2.2-4.8,6.1-4.8,10-4.3
		c1.7,0.4,3,0.4,4.3-0.4c0.9-0.4,1.7-1.3,2.6-1.3c1.3-0.4,2.6-0.9,4.8-0.4c3,0.9,6.1,1.3,9.1-0.4c2.6-1.3,3.9-0.9,8.2,0
		c1.3,0.4,3,0.9,4.3,0.4c4.3-0.9,9.1-1.7,13.4-2.2c3,0,5.6-2.2,7.8-4.3c1.7-1.7,1.7-1.7,0.4-4.3c-1.3-2.2-1.3-4.3-0.4-6.9
		c3.5-9.5,4.8-19,2.6-29c-0.4-2.2,0-4.3,2.2-6.1c0.9-0.4,1.3-1.3,2.2-2.2c-0.9-1.3-1.3-2.6-2.2-3.9c-1.3-1.3-1.7-2.6-0.4-4.3
		c0.4-0.4,0.4-1.3,0-1.3c-3-1.3-1.3-4.3-1.7-6.5c0-0.4,0-0.9,0-0.9c-2.2-3-0.4-5.6,1.3-7.8c0.9-0.9,0.9-1.7,0.4-3
		c-0.9-4.3-2.2-8.2-4.8-11.7c-0.9-1.3-0.9-2.6-0.4-4.3c0.4-1.3,1.3-3,0.4-3.9c-1.3-2.2,0-3.9,0-6.1c0.9-5.6,2.2-11.7,3-17.3
		c0.4-1.3,0.9-2.6,0.9-3.9c0.4-1.3,0.9-2.2,2.6-2.2c1.3-0.4,2.2-0.9,3.5-0.9c2.2-0.4,3.9-0.4,4.8,2.2c0,0.4,0.4,0.9,0.9,1.3
		c0.9,0.9,2.6,0.9,3.5-0.4c0.4-0.4,0.4-1.3,0.9-1.7c1.7-2.6,3.9-3.9,6.9-3c2.6,0.9,5.2,0.9,8.2,0c0.9-0.4,2.2,0,3,0.4
		c2.2,0.4,3.9,1.3,5.6,1.7c1.3,0.4,2.6,0.9,3.5,0.4c4.8-1.3,9.5-0.9,14.7,0c4.8,0.9,9.5,0.4,14.7,0.4c2.6,0,5.2,0,7.8,0
		c0.9,0,2.2,0.9,2.2,1.7c0.4,1.3,0,2.6-1.3,3c-2.6,1.3-4.8,3-6.9,5.2c-0.9,0.9-2.6,1.3-4.3,1.7c-1.3,0.4-3.5,0.9-3.9,1.7
		c-2.6,3.5-6.9,3.9-10.4,6.1c-2.2,1.3-4.3,1.7-6.9,1.3c-4.3-0.4-8.7,0.4-13-0.9c-1.7-0.4-3.9,0.9-5.6,1.3
		c-0.4,5.6-1.3,11.7-1.7,17.3c-0.4,2.2,0.9,4.3,0,6.9c-0.9,2.2,2.2,3.9,4.3,3.5c5.2-1.3,10.4-1.3,15.6-1.7c2.2-0.4,4.3-1.3,6.5-0.9
		c4.8,0.9,9.1,0,13.4-0.9c0.9,0,2.2,0,3,0.4c1.3,0,2.2,0.4,3.5,0.4c0.9,0,1.7-1.3,2.6,0c0.4,0.9,0.4,2.2,0,3
		c-0.4,2.2-1.3,4.3-3.9,5.6c-3,1.7-5.6,4.3-8.2,6.5c-4.3,3.9-9.5,6.9-15.6,7.8c-3.5,0.4-6.5,1.7-10,1.7c-2.6,0-5.2-0.4-7.8,0.9
		c-2.2,0.9-2.2,0.9-1.3,3.9c0.4,0.9,0.9,2.2,0.4,3c-1.7,2.6-0.9,5.2-0.9,8.2c-0.4,3.9,0.4,8.2-0.9,12.1c-0.4,1.3-0.4,2.6,0,4.3
		c0.4,5.6-1.3,10.8-1.7,16.4c0,0.9,0.4,1.7,0.4,2.2c0,3.9-0.4,8.2-0.4,12.1c0,2.6-0.9,5.6,0,8.2c1.3,4.3,0.9,8.2,0,12.5
		c-0.9,5.6-0.9,11.2-1.3,16.9c5.2,0,9.5,0,14.3-2.2c3-1.3,6.5-1.7,10-2.6c0.4,0,0.9,0.4,1.3,0.4c2.6,0.4,5.2,0.4,8.2-0.4
		c2.2-0.9,5.2-1.3,7.4-1.3c7.4,0,14.7,0,22.1-2.2c2.2-0.4,4.3,0,6.5,0c0.9,1.7,0.9,3-0.4,4.3c-4.8,5.2-9.5,10.4-16.9,12.1
		c-1.3,0.4-2.6,1.3-3.5,2.6c-0.4,0.9-1.7,1.3-2.6,1.3c-5.6-0.9-10,2.2-14.3,4.8c-1.3,0.9-3,1.3-4.8,1.7c-2.6,0.9-5.6,1.3-8.2,3
		c-1.3,0.9-3,1.3-4.8,0.4c-1.7-0.9-3.5-0.9-5.2,0.4c-0.9,0.9-2.6,0.9-3.9,1.3c-3.5,0.4-6.5,2.2-8.7,4.8c-2.6,2.6-5.2,4.8-9.1,4.8
		c-2.2,0-3.9,1.7-6.1,3c-1.3,0.9-2.6,2.2-4.3,3c-2.2,1.3-3.9,0.4-4.8-2.2c-1.3-3.9-1.7-7.8-0.4-11.7c0.4-1.3,0.4-3,0.4-4.8
		s-0.4-3.5-0.9-5.6c-0.4-1.7,1.7-3,0-4.8c2.2-5.2-0.4-11.2,1.7-16.9c0.4-1.3-0.4-3-0.9-4.3c-0.9-3.5-0.4-6.1,2.2-8.7
		c0.9-0.9,0.9-2.6,1.7-4.8c-3.9,0-7.4,0-10.8,0c-0.9,0-1.7,0.9-2.6,1.3c-3.5,1.3-6.9,3-11.2,3c-1.7,0-3.9-0.4-5.6,0.9
		c-0.4,0.4-1.7,0-2.6-0.4c-3.5-1.3-6.5-0.9-9.1,1.7c-1.7,1.7-4.3,2.2-6.5,2.6c-4.3,0.9-9.1,1.3-13.4,2.2c-1.3,0.4-2.6,1.3-3.5,2.6
		c-3,4.8-7.4,6.1-13,4.3c-2.2-0.9-3.9-1.3-6.1,0s-3.9,0-6.1-0.9c-1.3-0.4-3-0.4-3.5,0.4c-1.7,1.7-3.9,2.2-6.1,3
		c-5.2,2.2-8.7,1.3-11.2-3.9c-0.9-1.3-1.3-3-1.3-4.3c0-4.3-0.4-9.1-0.9-13.4c-0.4-2.6-0.9-5.2-0.9-7.4c0-2.6,0-5.2-0.9-7.4
		c-0.4-0.9,0-1.7,0-2.6c0-2.2,0.9-3.9,0-6.5c-0.4-2.2,0-4.3,0-6.1c0-3,0.9-6.1,3.9-7.8c1.3-0.9,1.7-1.7,1.3-3
		c-0.4-1.3-0.4-3-0.9-4.3c-1.7-6.9-3.9-13.8-3.5-21.2c0-1.7-0.4-3.5-0.9-5.6c-2.2-7.8-2.6-16-5.2-23.8c0-0.4,0-1.3,0-2.2
		c-0.4-4.8,0.4-9.1-0.9-13.8c-0.4-0.9,0.9-2.2,0.9-3.5c0.4-4.3,0.9-8.7,1.3-13.4c0-1.3,0.4-3,0.9-4.3c0.4-3.9,0.9-7.8-0.9-11.2
		c-1.3-2.6-1.3-4.8-0.4-7.4c1.3-3,1.7-6.1,1.3-9.5c0-1.7,0-3.5,0.9-5.6c1.7-5.2,1.3-10.4,0-15.6c-1.7-5.6-1.3-10.8,2.6-15.6
		c2.2-2.6,1.7-6.1,3-9.1c1.3-2.6,0.4-5.6,0.9-8.7c-0.4-2.2-0.4-5.6,0.4-9.1c0-1.7,0.9-3.5,1.7-5.2C270.4,0,270.8,0,270.8,0z"/>
	<path id="EL" class="st0" d="M230.6,234.1c-0.9-2.2-1.7-3.9-2.6-5.6c0-0.4-0.4-0.9-0.4-1.3c1.7-3.9-0.9-7.8-0.4-12.1
		c0-2.2-0.4-4.8-1.3-6.9c-0.9-2.6-0.9-5.2,0-7.4c0.4-3,1.7-6.1,0.4-9.5c-0.4-0.9-0.4-2.6,0-3.5c1.7-2.6-0.4-5.6,0.9-8.2
		c0.4-0.9-0.4-2.6-0.9-3.9c-1.3-2.2-0.9-4.3,0.4-5.6c3-3.5,2.6-7.8,3-12.1c0-1.3-0.4-1.7-1.7-2.2c-3.5-1.3-3.5-2.2-2.6-5.6
		c0.4-1.7,0.9-3,1.7-4.8c0.4-0.9-1.3-2.6-1.3-3.9c0-2.2,1.3-4.3,0.9-6.5c-0.4-2.2-0.4-4.3-0.9-6.5c0-0.4,0-0.9,0.4-1.3
		c2.6-3.9,1.3-8.2,1.7-12.5c0-1.3-0.4-2.6-1.7-3c-1.7-0.9-2.2-2.6-2.6-3.9c-1.7-5.6-2.2-10.8-2.2-16.4c0-1.7,0.9-2.6,1.7-3.5
		c2.2-1.7,2.6-3.9,2.6-6.5c0-2.2,0-4.3,0-6.9c0-1.7-0.4-2.6-2.2-3c-2.2-0.4-4.3-1.3-6.5-0.9c-3.5,0-6.5,0-9.1-2.6
		c-1.3,1.3-2.6,2.2-3.9,3.5c-3,3.5-6.9,3.9-10.8,3c-0.9-0.4-1.7-0.9-3-0.9c-6.5-0.4-11.7,2.6-15.6,7.8c-0.9,0.9-0.9,2.6-1.3,3.9
		c0,0.9,0,1.7,0,2.2c-2.2,2.2-2.2,3.9,0,6.1c0.4,0.4,0,2.2-0.4,3.5c-0.9,1.7-1.7,3.5-3,4.8s-2.2,2.6-0.9,4.8s2.2,3.9,4.8,3.9
		c1.7,0,3.5,1.3,5.2,0c0.4-0.4,0.9,0,1.7,0c2.2,0.4,4.8,0.9,6.9,0.9s4.8-0.9,6.9-0.9c1.3,0,2.6,0,3.5,0.4c1.3,0.4,2.6,0.4,3.9,0
		c1.7-0.4,3.9-0.4,5.6-0.4c2.6,0.4,4.8,1.3,7.4,0c1.3-0.4,2.2,0.4,3,1.3c0.4,1.3,0,2.2-0.9,3c-0.9,0.9-1.7,1.7-2.6,2.6
		c-0.4,0.9-1.3,1.7-1.3,2.6c-0.4,3.9-2.6,6.1-4.8,8.7c-1.3,1.7-7.4,3.9-9.5,3.9c-1.7,0-3,0-4.8,0c-2.6,0-5.6,0-7.8,2.2
		c-0.4,0.4-1.3,0.9-2.2,0.9c-1.3,0-2.2,0.4-3,1.3c-2.6,3.5-6.1,3-9.5,1.7c-0.9-0.4-1.3-1.3-2.2,0c-0.9,0.9-0.9,1.3-0.4,2.2
		c0.9,1.7,0.9,3.5,0,5.6c-0.4,1.7-0.4,3.9,0,6.1c0.4,2.6,1.3,4.8,1.7,7.4c0.4,2.2,0.9,4.3,0,6.5c-0.9,1.3,0,3,1.3,3.9
		c2.2,2.2,2.6,8.2,0.4,10.8c-1.3,1.7-1.7,3-1.7,5.2c0,3.9,0.9,8.2-0.9,12.1v0.4c2.6,6.9-1.3,13.4,0,20.3c0,0.9,0,1.3,0,2.2
		c0.4,2.2,2.6,3,4.8,2.2c3.9-1.7,7.4-2.6,11.7-1.3c3.5,0.9,7.4,0.4,10.8-1.7c1.7-1.3,3.9-1.3,6.1-1.3c2.6,0,5.2,0,8.2-0.9
		c2.6-0.9,5.6-0.4,8.2,0c2.2,0,3,2.6,1.3,4.3c-1.3,1.3-2.6,2.2-3.9,3c-3,1.3-6.1,2.6-8.7,3.9c-0.9,0.4-1.7,1.3-2.6,1.7
		c-3.5,2.2-6.1,5.6-10,6.5c-1.3,0.4-2.6,2.2-3.9,3.5c-2.2,2.2-4.3,3.5-7.4,3.9c-3.5,0.4-6.5,1.3-10,2.2c-2.6,0.9-4.8,3-6.5,5.2
		c-0.9,0.9-1.7,2.2-2.6,3.5c-2.6,3.5-6.1,5.2-10.4,4.8c-2.2,0-3.9,0.9-5.6,2.2c-0.9,0.4-1.7,0.9-2.6,1.3c-1.7,0.4-3-0.4-3-2.6
		c0-0.9,0-1.3,0-2.2c1.3-4.8,0-8.7-1.7-13.4c-0.9-2.6-0.4-5.6,0-8.2s1.7-5.6,3-8.2c0.9-1.7,0.9-3.5,0-5.6
		c-1.7-5.6-3.5-11.7-3.9-17.7c-0.4-5.6-0.9-11.2-1.7-16.9c-0.9-4.8-0.4-10,0.9-14.7c0.9-3,0.4-6.5,0.9-9.5c0.9-8.2,1.3-16,1.3-24.2
		c0-3.5,0-6.5-1.3-10c-0.9-3-1.3-6.1-2.2-9.5c-0.4-1.7-1.7-3,0-4.8c-0.4-4.8,1.3-9.5-0.9-14.3c-0.4-0.9,0-2.2,0-3
		c0-4.8-0.9-10-2.2-14.7c-0.4-1.7-0.4-3.9,1.3-5.2c1.7-1.7,2.2-3.9,0.9-6.5c-0.9-1.7-0.9-3.5-1.3-5.6c-0.4-3.9,0.4-7.4,3.9-10
		c0.4-0.4,1.3-0.9,1.3-1.3c1.3-3.9,5.6-3.5,8.2-5.6c0.4-0.4,1.3-0.4,1.3,0c3,1.7,6.9,1.3,10,3.5c2.2,1.3,3.9,2.2,6.5,0.9
		c2.2-0.9,5.2-2.6,7.8-0.4h0.9c5.6-2.6,11.7-1.7,17.3-3c1.7-0.4,3-1.3,4.3-2.2c2.6-1.7,5.6-2.6,8.7-0.4c3.5,2.2,6.9,3.9,10.8,1.7
		c0.4-0.4,0.9,0,1.7,0c3-0.4,3.5-0.4,3.5-3.9c0-2.6,0.9-3.9,3-4.3c0.4,0,0.4-0.4,1.3-0.4c0-7.8,0-16,3.9-23.8c1.3,1.7,2.2,3,3.5,3.9
		c2.2,2.2,3.9,4.3,3.5,7.8c0,0.9,0.4,2.2,0.9,3.5c1.3,3.5,3,6.9,1.3,10.8c-0.4,1.3-0.4,3,0,3.9c1.3,4.8,0,10.4,2.6,14.7
		c-0.4,3.5,1.7,6.5,0.4,10c-1.3,3.5,0.9,6.9,0.9,10.8c0.4,3,1.3,5.6,1.7,8.2c0.4,6.1,0.9,12.1,1.3,17.7c0.4,3.5-0.4,6.9,0.9,10.4
		c0.4,2.2,0.9,4.8,0,6.5c-1.7,4.8,0,9.5,0.4,14.3c0.4,2.6,0.9,4.8,1.3,7.4s1.7,5.6,3,8.2c0.9,1.7,1.3,3.5,0.4,5.2
		c-3,5.2-1.7,11.7-3,17.3c1.7,4.8,1.7,9.5,3.9,14.3c0.9,1.7,1.7,4.3,1.7,6.1c0,3-0.4,5.6-1.3,8.7s-1.3,6.1-0.9,9.1
		c0.4,2.6,0,5.6,0,8.2c0,2.2-0.4,3.9,1.3,5.6c0.9,0.9,0.9,2.6,0.4,3.5c-1.3,3-1.7,5.6,0.9,8.2c0.4,0.4,0.4,1.7,0.4,2.6
		c0,2.6,0,5.6,0,8.2s0.9,4.8,0.4,7.4c-0.4,1.7,0.9,3.5,1.7,5.6c1.7-0.9,3.5-1.7,4.8-1.7c3.5,0.9,6.9-0.9,10-1.3
		c4.8-0.9,9.5-0.4,14.3-1.3s9.5-0.4,14.3-0.9c3.5-0.4,6.5-0.4,9.5-3c0.9-0.9,2.6-1.7,3.9-1.7c4.8-0.4,9.1-0.9,13.8-1.3
		c0.9,0,2.6,0,3-0.4c1.7-2.2,3.9-1.7,6.1-1.7c1.7,0,3.5,0.4,5.2-0.9c0.4-0.4,1.7,0,2.6,0c3.9,1.7,4.3,3.5,1.3,6.1
		c-3.5,3-7.4,6.5-10.8,9.5c-1.3,0.9-2.2,1.3-3.9,1.3c-3.5,0-6.5,0.9-8.7,3.5c-1.3,1.7-3,2.2-4.8,2.6c-2.2,0-3.9,1.3-5.2,2.6
		c-2.2,2.2-4.8,2.6-7.4,2.6c-5.6-0.4-11.2,0-16.4,3c-1.7,1.3-3.5,2.6-5.2,3.9c-1.3,0.9-2.2,2.2-3.5,3.5c-3.5,3.5-6.5,3.9-10.8,1.7
		c-2.2-1.3-4.3-1.7-6.9,0c-1.7,0.9-2.2,2.2-2.6,3.9c-0.9,2.6-1.3,5.6-2.2,8.2c-1.3,3.9-5.2,5.6-8.7,3.9c-3-1.7-5.6-1.3-8.7,0.4
		c-4.3,2.2-5.6,1.7-9.5-1.7c-0.4-0.4-0.9-0.9-1.3-1.3c-5.2-3-4.8-8.2-3.9-13c0.4-3,2.2-5.2,3.5-7.8c1.3-2.6,1.3-2.6,0-5.2
		c-0.4-0.9-0.9-1.7-1.3-2.6c-2.2-3-1.3-5.2,0.4-7.8c2.6-3.5,2.6-3.5,0-7.4c-2.6-3.5-3.5-7.4-3.9-11.2c-0.4-3.5,0.4-6.9,0.9-10.8
		c0-0.9,0.9-1.3,1.3-2.2C228.4,235.8,229.7,234.9,230.6,234.1z"/>
	<path id="H" class="st0" d="M0,58c1.7-0.9,0.9-2.2,0.9-3.5c0.4-3,1.3-4.3,4.3-4.8c1.3-0.4,2.6-0.4,3.9-0.9c2.6-1.3,5.6-1.7,8.2,0
		c1.7,1.3,3.5,0.9,5.6,0.4c3.5-0.9,6.1,0.4,7.4,3.9c1.3,3,0.9,6.1,0.9,9.1c0,1.7,0,3.5,0.9,4.8c1.3,2.2,1.7,4.3,2.2,6.5
		c0.9,3,2.6,6.1,3.9,9.5c1.3,3,2.2,6.5,2.2,10c0,4.3,0.9,8.2,2.6,12.5c0.4,0.9,0.4,2.2,0.4,3.5c0,2.6,0,4.8,0,7.4
		c0,2.2,0.9,3.9,2.2,5.6c2.6,3,3.9,6.5,3.9,10c0,1.7,0.9,3,1.7,3.9c2.6,2.2,3.9,4.8,3.5,8.2c0,1.7,0.4,3,1.7,4.3s1.3,3,0.4,4.8
		c-1.3,1.7-0.9,3-0.4,4.8c0.4,4.3,2.6,8.7,3,13.4c0,2.2,1.7,3.9,2.2,6.1c1.7-0.9,3-0.9,4.8-0.4c2.6,0.9,4.3,0.4,6.5-1.3
		c2.6-2.2,5.2-4.3,8.2-6.1c2.6-1.7,6.1-2.6,9.1-2.6c3,0.4,6.1-0.9,9.1-1.7c2.2-0.4,3.5-1.7,3.5-4.3c0-1.7,0.4-3.5-1.3-5.2
		c-2.6-2.6-3-6.1-1.7-9.1c0.4-0.9,0.9-2.2,0.9-2.6c-0.4-0.9-1.3-1.7-2.2-2.2c-2.2-0.9-2.6-2.6-3-4.3c-0.9-2.2-0.4-3.5,0.4-5.2
		c1.3-2.2,1.3-3.9,0-6.5c-1.3-3-2.2-6.1-2.2-9.5c0-4.8-1.7-8.7-3-13c-1.7-6.1-3-12.1-3.5-18.2c0-2.6-1.3-4.8,0-7.4
		c0.4-0.4-0.4-1.7-0.4-2.6c0-1.7-0.9-3.9,0-5.6c1.7-3,1.7-5.6,1.7-9.1c0-2.2,0.4-3.9,1.3-6.1c1.3-2.6,2.6-5.6,6.5-5.6
		c3.5-2.6,8.2-3.9,10.8-7.8c0.4-0.9,1.7-1.3,2.6-1.7c3-1.3,6.1-2.6,8.7-3.9c2.2-0.9,4.8-0.4,5.6,2.2c1.7,3.9,3.5,7.8,5.2,11.7
		c0.4,1.7,0.9,3.5,0.4,5.2c-0.9,3-0.4,6.9-4.3,8.7c1.7,4.3,1.3,8.2-0.4,12.1c-1.3,2.2-1.3,4.3-1.3,6.9c0,3.9,0.4,7.8,0,11.2
		c-0.4,5.6,1.3,10.4,4.3,14.7c1.3,1.7,1.7,3.5,1.7,5.6c0,6.1,0,12.5,0,18.6c0,0.4,0,1.3,0,1.7c-1.7,3-0.4,6.5,0.4,9.5
		c0.9,4.8,1.3,9.5,0,14.7c-0.4,1.7,0,4.3,0.4,6.5c0.9,2.6,1.3,5.6,1.3,8.7c0,5.6,0.9,11.7,1.7,17.3c0.4,5.2,0.4,10.4,0,15.6
		c0,2.2,0.4,4.8-1.7,6.9c-0.4,0.4-0.4,2.2-0.4,3c1.7,3.5,0.9,7.4,0.9,11.2c0,0.9-0.4,2.2-1.3,2.6c-2.6,2.2-1.7,4.8-1.7,6.9
		c0.4,2.6,0.4,4.8,0.9,7.4c0.4,3.5,0,6.5-1.3,9.5c-1.3,3.5-1.3,7.4-0.9,10.8c0,0.9,0,2.2-0.4,3c-0.9,3.5-2.6,6.5-2.6,10.4
		c0,1.3-1.3,2.6-1.7,3.5c-1.7,4.3-2.6,9.1-3.5,13.8c-1.3,6.5,0.4,13-3.5,19c-1.7-3.9-3-7.4-2.6-11.2c0.4-4.8-0.4-9.1-2.2-13.4
		c-0.4-1.3-0.9-2.2,0-3.9c0.9-1.3,0-3.5,0-5.2c0-1.3-0.9-3-0.9-4.3c0-4.3,0-8.7-1.7-13c-0.4-1.3,0.9-3.5,0.4-5.2
		c-0.4-1.7-2.2-3-2.6-4.8c-0.4-1.7-0.4-3.9,0.9-5.6c0.9-1.3,0.9-3,1.7-4.3c1.3-4.3,1.3-8.2-1.7-11.7c-3.9-4.8-3.9-10-0.9-15.1
		c1.3-1.7,1.7-3.9,0.9-6.5c-0.9-2.2-0.4-4.3-0.4-6.5c0-3.9-0.4-4.3-3.9-5.6c-2.2-0.9-4.3-0.9-6.9-0.4c-4.8,1.7-10,2.2-14.7,3.5
		c-5.2,1.3-9.1,3.9-11.7,8.7c-2.2,3-3,6.5-3,10c0,0.9,0,1.7,0.4,2.2c2.2,2.6,1.3,5.6,0.4,8.2c-0.9,1.7-0.4,3.5,0.4,4.8
		c0.9,2.2,2.2,4.3,3,6.5c1.3,3.9,0.9,5.6-0.4,10.8c-0.4,1.7-0.4,3,0.4,4.8c1.3,2.6,1.3,5.6,1.3,8.7c0,2.2,0,3.5,2.2,4.8
		c2.2,0.9,3,3,3,5.6c0,2.2,0.4,3.9,0.9,6.1c1.7,4.8,1.7,10.4,1.3,15.1c0,2.6-1.3,4.8,0,7.4c0.4,0.9,0.4,1.7,0,2.6
		c-2.2,3.9-0.4,7.4,0.9,11.2c0.4,2.2,0.9,3.9,1.3,6.1c0,0.9-0.9,1.7-0.9,2.6c-1.7-2.6-3-5.2-4.8-8.2c-0.9-1.7-1.7-3.9-2.6-5.6
		c-0.4-0.9-0.9-2.6-1.3-3c-3.5-3.5-3.9-8.2-4.8-12.5c-0.9-3.5-0.9-7.4-3.9-10.4c-1.3-1.3-2.2-2.6-3.9-3c-1.7-0.9-2.2-2.2-3-3.9
		c-0.9-3-2.6-6.1-3.5-9.5s-1.7-6.9-2.2-10.4c-0.4-1.3-0.4-2.6,0-3.5c1.7-3,0-6.1-0.9-8.7s-2.2-4.8-2.6-7.8c0,0,0-0.4-0.4-0.4
		c-0.9-2.2-2.6-4.3-3-6.5c-0.4-2.2-0.4-4.8-0.4-6.9c0-0.9-0.9-1.7-1.3-2.6c-1.3-2.2-1.7-4.3-1.7-6.9c-0.4-3-1.3-6.1-2.2-9.5
		c0-0.4-0.4-0.9-0.4-0.9c-4.8-1.7-3.5-6.5-4.3-10c-0.4-1.7-0.9-3.5-2.6-4.3c-2.2-1.3-3-3-2.6-5.6c0.4-6.9-1.7-13.8-3.5-20.3
		c-2.6-10.4-6.5-20.3-7.8-30.7c-2.2-5.2-3.5-10-4.3-14.7c-1.7-6.9-4.3-13-7.4-19.5C3.9,97.3,2.2,93,2.2,87.8c0-3.9-0.9-7.8-1.3-11.7
		c0,0-0.4-0.4-0.9-0.4C0,70.1,0,64,0,58z"/>
</g>
</svg>
