<?xml version="1.0" encoding="utf-8"?>
<!-- Generator: Adobe Illustrator 27.6.1, SVG Export Plug-In . SVG Version: 6.00 Build 0)  -->
<svg version="1.1" id="Calque_1" xmlns="http://www.w3.org/2000/svg" xmlns:xlink="http://www.w3.org/1999/xlink" x="0px" y="0px"
	 viewBox="0 0 491 6" style="enable-background:new 0 0 491 6;" xml:space="preserve">
<style type="text/css">
	.st0{fill:#C74D4D;}
</style>
<path class="st0" d="M416.4,4c-0.4,0.1-1,0.3-1.2,0.2c-4.3-1.1-9.3-0.3-13.8-0.8c-1.6-0.2-3.4-0.2-5-0.2c-0.6,0-1.3,0.2-1.8,0.4
	c-1.7,0.5-2.3,0.5-2.9-0.4c-1.2,0.5-2.5,0.6-4.1,0.2c-0.7-0.2-1.8-0.2-2.5-0.2c-1.6,0.2-2.7,0.1-3.3-0.6c-0.2,0.2-0.3,0.5-0.4,0.5
	c-1.6,0.1-3.2,0.2-4.7,0.1c-0.8,0-1.7-0.3-2.1,0.3c0,0-0.4,0.1-0.6,0.1c-1.9-0.2-3.8-0.4-6.3-0.7c-1.2,0.2-3,0.7-5.1,0
	c-0.3-0.1-1.2,0.2-1.9,0.2c-0.9,0.1-1.8,0.1-2.8,0c-0.7,0-1.3-0.2-2.4-0.3c0.5-0.1,0.9-0.2,1.7-0.3c-1.7-0.2-2.9-0.6-3.4,0.2
	c0,0.1-0.3,0.2-0.4,0.2c-2.1,0-4.2-0.1-6.3-0.1c-0.1,0-0.1-0.1-0.3-0.3c1.5-0.1,3-0.1,4.5-0.1c-1-0.3-3.2,0.3-3.2-0.7
	c-2,1-4.9,0.3-7.3,0.8c0.6,0,1.3,0,1.9,0c0,0.1,0,0.1,0,0.2c-1.3,0.1-2.7,0.1-4,0.2c-3.2,0.2-6.3,0.1-9.4-0.1
	c-1.2-0.1-2.4,0.1-3.7,0.1c-0.5,0-1.1-0.1-1.6-0.1c0-0.1,0-0.2,0-0.2c1-0.1,2.1-0.1,3.3-0.2c-1.7-0.1-3.1-0.5-4.6,0.2
	c-0.7,0.3-2.5,0.4-3.8,0.4c-0.6,0-1.2-0.3-1.5-0.4c-0.6,0.1-1.4,0.3-2,0.3c-0.8-0.1-1.6-0.4-2.5-0.5c-0.5-0.1-1.5,0.1-1.8,0.2
	c-1.1,0.5-2.2,0.3-3.4,0.1c-0.1,0,0-0.2,0-0.4c-1.6,0-3.3,0-5,0c0,0,0,0.1,0,0.1c0.7,0,1.3,0.1,2,0.1c0,0.1,0,0.1,0,0.2
	c-0.7,0-1.5,0-2.2,0c-4.2,0.1-8.4,0.2-12.7,0.3c-3.3,0-6.5-0.1-9.8-0.1c-2.1,0-4.2,0.1-6.3,0.1c-2.3,0-4.7,0-7.1,0
	c0.2-0.1,0.4-0.3,1-0.6c-1.9,0.2-3.4,0.4-4.9,0.5c-0.6,0-1.9,0.4-1.7-0.3c-1.3,0-2.7,0.1-4.5,0.1c0.7,0.2,1,0.3,1.5,0.5
	c-0.9,0-1.7,0-2.4,0.1c0.2-0.2,0.4-0.4,0.7-0.7c-1.3,0-2.3,0.1-3.4,0.1c-0.1,0.2-0.2,0.4-0.3,0.6c-0.3,0.1-0.4,0.1-0.5,0.1
	c-1.8-0.3-3.6,0.1-5.4,0.1c-1.5,0-1.5,0.1-1.7-0.5c-3.4,0.2-6.8,0.4-10.6,0.6c0.5-0.3,0.9-0.4,1.2-0.6c-3,0-6,0-9,0
	c-0.8,0-1.7,0.1-2.3,0.4c-1.7,0.6-3.3,0.6-4.9,0.1c-1.5-0.4-2.8-0.6-4.2,0.1c-0.8,0.4-2.8,0.1-3.2-0.4c-0.4,0.3-0.7,0.6-1.1,1
	c-0.4-0.1-0.7-0.2-1.1-0.4c0-0.2-0.1-0.4-0.2-0.7c-1.7,0.1-3.3,0.2-5,0.3c0,0.1,0,0.1,0,0.1c0.7,0.1,1.3,0.1,2,0.1c0,0,0,0.1,0,0.1
	c-0.6,0-1.2,0-1.7,0c-2-0.2-3.8-0.3-5.8,0.1c-1.3,0.3-3,0.1-4-0.7c-0.6,0.2-1,0.5-1.7,0.5c-0.6,0.1-1.9,0.1-2.1-0.1
	c-0.6-0.6-1.8-0.5-2.3-0.2c-2.1,1.2-4.9,0.7-7.5,0.7c-3.3,0-6.6,0-9.9,0.1c-2.1,0-4.2,0.1-6.3,0.1c-0.5,0-1-0.2-1.4-0.4
	c-2.5,0.1-5.2,0.3-7.8,0.4c-6.1,0.1-12.1,0.2-18.2,0.2c-3.8,0-7.6-0.2-11.4-0.4c-0.8,0-1.6,0.1-2.3,0c-0.6,0-1.3-0.2-1.7-0.3
	c-0.4,0-0.8,0-1.2,0c-1.2,0-2.9-0.2-3.5,0.1c-2.4,0.9-5.3,0.5-7.8,0.6c-4.4,0.1-8.8-0.5-13.3-0.2c-0.8,0.1-1.7-0.3-2.6-0.4
	c-0.5-0.1-1.2-0.1-1.7,0c-2.9,0.6-5.8,0.4-8.9,0.2c-2.3-0.2-5-0.4-7.3,0.2c-0.1,0-0.3,0-0.4,0C70.5,4,65.3,4.9,59.8,4.6
	c-0.8,0-1.6-0.3-2.3-0.2c-1.2,0-2.3,0.2-3.4,0.3c-0.7,0-1.5-0.1-2.2-0.1c-1.8,0-3.7,0.1-5.4,0.2c-0.8,0-1.7,0-2.6,0
	c-1.3,0-2.7,0.1-4.1,0.1c-3,0.1-6,0.2-9,0.3C26,5.3,21.2,5.6,16.4,5.7c-2.9,0.1-5.9,0.1-8.7-0.2C2.4,5,0.6,4,0,1.9
	c0.7,0,1.3,0,1.9,0.1c4.6,0.8,9.6,0.8,14.4,0.7c17-0.2,34-0.6,51.1-0.8c17.6-0.2,35.2-0.2,52.9-0.3c12-0.1,24-0.1,36-0.2
	c14.6-0.1,29.3-0.3,43.9-0.5c9.7-0.1,19.5-0.1,29.2-0.2c10-0.1,19.9-0.3,29.8-0.4c7-0.1,14-0.1,21-0.1c4.9,0,9.7,0,14.6,0
	C305.6,0.1,316.3,0,327,0c6.6,0,13.2,0.1,19.8,0.1c6,0,12.1,0.1,18.1,0.1c9.2,0.1,18.4,0.2,27.6,0.3c7.2,0.1,14.4,0.2,21.7,0.4
	C435.8,1.3,457.4,1.6,479,2c1.7,0,3.5,0.1,5.1-0.1c1.9-0.2,3.8,0.1,4.3,0.6c1.1,0.9,3.3,1.6,2.3,2.8c-0.5,0.6-0.9,0.7-2.1,0.7
	c-8-0.2-16-0.5-24-0.7c-6.1-0.2-12.2-0.2-18.3-0.3c-1.4,0-3-0.5-4.2-0.4c-1.9,0.2-3.8-0.8-5.5,0.1c-0.2,0.1-1,0-1.5,0
	c-2-0.1-3.9-0.3-5.9-0.4c-1-0.1-2.1,0.1-3.1,0.1c-1.1-0.1-2.1-0.3-3.2-0.3c-1.4-0.1-2.8,0-4.2,0c-0.8,0-1.6-0.1-2.4-0.2
	C416.4,3.9,416.4,3.9,416.4,4z M380.1,1.4c0-0.1,0-0.2,0-0.3c-12-0.2-24-0.3-36-0.5c0,0,0,0.2-0.1,0.4
	C356.1,1.2,368.1,1.3,380.1,1.4z M312.3,1.1c0-0.1,0-0.2,0-0.3c-1.5-0.1-2.9-0.2-4.4-0.3c-1,0-2.1,0.2-2.9,0.1
	c-2.5-0.4-4.9,0.4-7.6,0.1c-2.1-0.3-4.6,0.2-7,0.2c-3.5,0-7.1,0-10.6,0c0,0.1,0,0.2,0,0.2C290.7,1.1,301.5,1.1,312.3,1.1z
	 M343.7,0.6c-9.3,0-18.1,0-26.9,0c0,0.1,0,0.2,0,0.3c0.7,0,1.4,0.1,2.1,0.1c7.6,0,15.3,0,23,0C342.4,1.1,343,0.8,343.7,0.6z
	 M439.2,2.4c-5.1-0.6-10.6-0.2-15.8-0.8c-1.7-0.2-4,0.2-5.9,0.3c0,0,0,0.1,0,0.1L439.2,2.4z M466.9,2.9c0-0.1,0-0.2,0-0.2
	c-8.8-0.2-17.6-0.3-26.4-0.5c0,0.1,0,0.1,0,0.2C449.2,2.6,458,2.8,466.9,2.9z M162.6,1.8c0,0.1,0,0.2,0,0.3c5.6,0,11.3,0,16.9,0
	c0-0.1,0-0.2,0-0.3C173.9,1.8,168.2,1.8,162.6,1.8z M241.1,1.5c0-0.1,0-0.1,0-0.2c-4.2,0-8.3,0-12.5,0c0,0.1,0,0.1,0,0.2
	C232.8,1.5,237,1.5,241.1,1.5z M261.7,1c0,0.1,0,0.1,0,0.2c3.7,0,7.4,0,11.1,0c0-0.1,0-0.1,0-0.2C269.1,1,265.4,1,261.7,1z M136,2.3
	c0-0.1,0-0.1,0-0.2c-4,0-8,0-12.1,0c0,0.1,0,0.1,0,0.2C127.9,2.3,131.9,2.3,136,2.3z M401.7,1.5c0,0.1,0,0.2,0,0.3
	c3.3,0,6.5,0,9.8,0c0-0.1,0-0.2,0-0.3C408.2,1.5,404.9,1.5,401.7,1.5z M242.1,1.1c0,0.1,0,0.2,0,0.2c3.3,0,6.5,0,9.8,0
	c0-0.1,0-0.2,0-0.2C248.6,1.1,245.4,1.1,242.1,1.1z M388.8,1.4C388.8,1.4,388.8,1.4,388.8,1.4c-1.3-0.2-2.6-0.5-3.9-0.5
	c-1.4,0-2.9,0.2-4.3,0.3c0,0.1,0,0.1,0,0.2C383.3,1.4,386,1.4,388.8,1.4z M184.5,1.7c0,0.1,0,0.2,0,0.3c2.4,0,4.7-0.1,7.1-0.1
	c0-0.1,0-0.1,0-0.2C189.2,1.7,186.8,1.7,184.5,1.7z M204.6,1.9c0-0.1,0.1-0.2,0.2-0.2c-2.2,0-4.3,0-6.5,0c0,0.1-0.1,0.2-0.2,0.3
	C200.2,2,202.4,1.8,204.6,1.9z M211.1,1.5c0,0.1,0,0.1,0,0.2c3,0,6.1,0,9.1,0c0-0.1,0-0.1,0-0.2C217.2,1.5,214.1,1.5,211.1,1.5z
	 M220.8,1.5c0,0.1,0,0.2,0.1,0.2c1.8-0.1,3.6-0.1,5.4-0.1c0-0.1-0.1-0.3-0.1-0.4C224.4,1.3,222.6,1.4,220.8,1.5z"/>
</svg>
