<?xml version="1.0" encoding="utf-8"?>
<!-- Generator: Adobe Illustrator 27.6.1, SVG Export Plug-In . SVG Version: 6.00 Build 0)  -->
<svg version="1.1" id="Calque_1" xmlns="http://www.w3.org/2000/svg" xmlns:xlink="http://www.w3.org/1999/xlink" x="0px" y="0px"
	 viewBox="0 0 516.4 281.1" style="enable-background:new 0 0 516.4 281.1;" xml:space="preserve">
<style type="text/css">
	.st0{fill:#C7383C;}
</style>
<g>
	<g>
		<path class="st0" d="M198.2,47.3h3l-2.6,21.2h-3.8l-1.5-12.8l-1.4,12.8h-3.9l-2.6-21.2h3.3l1.5,14l1.6-14h3.1l1.6,14L198.2,47.3z"
			/>
		<path class="st0" d="M208.4,65.6h4l-0.7,2.9h-7.3l0.7-2.9V50.2l-1.2-2.9h8.4l-1.2,2.9h-2.8v4.4h3.8l-1.2,2.9h-2.7L208.4,65.6
			L208.4,65.6z"/>
		<path class="st0" d="M219.3,65.6h3.6l-1.2,2.9h-5.7V47.3h3.2L219.3,65.6L219.3,65.6z"/>
		<path class="st0" d="M234.6,47.1v3.3c-4.1,0-7.5,3.3-7.5,7.5s3.3,7.5,7.5,7.5v3.3c-5.9,0-10.7-4.8-10.7-10.7
			C223.9,51.9,228.7,47.1,234.6,47.1z"/>
		<path class="st0" d="M257.4,57.8c0,5.9-4.8,10.7-10.7,10.7S236,63.7,236,57.8s4.8-10.7,10.7-10.7S257.4,51.9,257.4,57.8z
			 M254.2,57.8c0-4.1-3.3-7.5-7.5-7.5c-4.1,0-7.5,3.3-7.5,7.5c0,4.1,3.3,7.5,7.5,7.5C250.8,65.3,254.2,61.9,254.2,57.8z"/>
		<path class="st0" d="M271.6,47.3h3.2v21.2h-3.2V51.9l-3.7,6.3l-3.7-6.3v16.6H261V47.3h3.2l3.7,5.4L271.6,47.3z"/>
		<path class="st0" d="M283,65.6h4l-0.7,2.9H279l0.7-2.9V50.2l-1.2-2.9h8.4l-1.2,2.9H283v4.4h3.8l-1.2,2.9H283L283,65.6L283,65.6z"
			/>
		<path class="st0" d="M297.5,47.3h11.4l-1.2,2.9v0l-0.1,0.3l-2.8-0.3h0v18.3h-3.2V50.2h0l-2.8,0.3l-0.1-0.3v0L297.5,47.3z"/>
		<path class="st0" d="M330.9,57.8c0,5.9-4.8,10.7-10.7,10.7s-10.7-4.8-10.7-10.7s4.8-10.7,10.7-10.7S330.9,51.9,330.9,57.8z
			 M327.6,57.8c0-4.1-3.3-7.5-7.5-7.5c-4.1,0-7.5,3.3-7.5,7.5c0,4.1,3.3,7.5,7.5,7.5C324.3,65.3,327.6,61.9,327.6,57.8z"/>
	</g>
	<g>
		<path class="st0" d="M47.6,172v-56.7h8.7V172H47.6z"/>
		<path class="st0" d="M86.4,115.3h7.8V172h-7.8v-27.7l-10.4-16.7V172h-7.8v-56.7h7.8l10.4,14.4V115.3z"/>
		<path class="st0" d="M115.8,123.1v11.7h9.8l-3.1,7.9h-6.7V172h-8.7v-48.8l-3.1-7.9H126l-3.1,7.9L115.8,123.1L115.8,123.1z"/>
		<path class="st0" d="M144.4,164.1h10.8l-1.9,7.9h-19.4l1.9-7.9v-41l-3.1-7.9H155l-3.1,7.9h-7.5v11.7h10.2l-3.1,7.9h-7.1
			L144.4,164.1L144.4,164.1z"/>
		<path class="st0" d="M183.7,148.5l6.1,4.1V172h-8.7v-15.1l-6.7-4.9v20h-8.7v-48.8l-3.1-7.9h9.5c1.8,0,3.6,0.1,5.3,0.6
			c7,1.8,12.2,7,12.2,17.8C189.8,140.9,187.4,145.6,183.7,148.5z M174.5,144.3c2.1-0.1,7.4-2.1,7.4-10.6c0-8.6-5.3-10.5-7.4-10.6
			V144.3z"/>
		<path class="st0" d="M219.1,115.3h7.8V172h-7.8v-27.7l-10.4-16.7V172h-7.8v-56.7h7.8l10.4,14.4V115.3z"/>
		<path class="st0" d="M293.7,143.4c0,15.8-12.8,28.6-28.6,28.6c-15.8,0-28.6-12.8-28.6-28.6s12.8-28.6,28.6-28.6
			S293.7,127.6,293.7,143.4z M285,143.4c0-11-8.9-19.9-19.9-19.9c-11,0-19.9,8.9-19.9,19.9c0,11,8.9,19.9,19.9,19.9
			C276.1,163.3,285,154.4,285,143.4z"/>
		<path class="st0" d="M316,115.9c7,1.8,12.2,7,12.2,17.8c0,12.3-6.8,17.3-15.4,18.4v20h-8.7v-48.8l-3.1-7.9h9.5
			C312.4,115.3,314.2,115.4,316,115.9L316,115.9L316,115.9z M320.2,133.6c0-8.6-5.3-10.5-7.3-10.6v21.3
			C314.9,144.1,320.2,142.2,320.2,133.6z"/>
		<path class="st0" d="M392.2,143.4c0,15.8-12.8,28.6-28.6,28.6c-15.8,0-28.6-12.8-28.6-28.6s12.8-28.6,28.6-28.6
			S392.2,127.6,392.2,143.4z M383.6,143.4c0-11-8.9-19.9-19.9-19.9c-11,0-19.9,8.9-19.9,19.9c0,11,8.9,19.9,19.9,19.9
			C374.6,163.3,383.6,154.4,383.6,143.4z"/>
		<path class="st0" d="M410.5,164.1h9.6L417,172h-15.1v-56.7h8.7L410.5,164.1L410.5,164.1z"/>
		<path class="st0" d="M428.2,172v-56.7h8.7V172H428.2z"/>
		<path class="st0" d="M455.5,127.9c0,4.6,5.5,12,7.4,15c1.9,2.9,5.8,8.2,5.8,15.7c0,7.6-4.8,12.2-10.5,13.1
			c-6.4,1.1-11.4-1.5-11.4-1.5c0,0,0,0,0,0l2.2-7.5h0c0,0,4.8,2.6,7.8,1.5c3.3-1.1,3.2-4.8,3.2-5.6c0-4.6-7.4-15-7.4-15
			s-5.4-7.2-5.8-15.7c-0.4-7.6,4.8-12.2,10.5-13.1c6.4-1.1,11.4,1.5,11.4,1.5c0,0,0,0,0,0l-2.2,7.5h0c0,0-4.8-2.6-7.8-1.5
			C455.4,123.4,455.5,126.9,455.5,127.9z"/>
	</g>
	<g>
		<g>
			<path class="st0" d="M260.8,264.3l12.1-37.6l-7.7,3.2l-3-13.5l-2.5,25.7l6-2.5L260.8,264.3z M283.2,228.8l-13.5,34.1l6.9-2.9
				l-6.3,15.8l15.4-24.4l-7.3,3l14-29.5L283.2,228.8z M264.8,267.8l22.3-56.3l-5.4,2.2l6.9-17.3h-13.9l-7.1,29.5l9.5-4l-17.1,53.3
				h7.5l4.1-10.3L264.8,267.8z M271.6,198.3h-10.6l5.1,23L271.6,198.3z M298.3,248.5l9.9,4.1l-0.3-16.5L298.3,248.5z M299.3,234.5
				l8.4-17.7l-10.6,4.4l-10,21.1l9.9-4.1l-5.9,9.4l3.7,1.6l14.7-18.9L299.3,234.5z M277.5,275.3h9.4l-2-9.4L277.5,275.3z
				 M284.8,257.6L270,281.1l15.5-20L284.8,257.6z M246.1,275.9l-6.3-15.8l6.9,2.9l-13.5-34.1L224,225l14,29.5l-7.3-3L246.1,275.9z
				 M208.2,252.7l9.9-4.1l-9.6-12.3L208.2,252.7z M255.4,198.3h-10.6l5.5,23L255.4,198.3z M219.3,221.3l-10.6-4.4l8.4,17.7
				l-10.2-4.2l14.7,18.9l3.7-1.6l-5.9-9.4l9.9,4.1L219.3,221.3z M251.2,229.9l-7.7-3.2l12.1,37.6l-4.9-24.7l6,2.5l-2.5-25.7
				L251.2,229.9z M229.5,275.3h9.4l-7.3-9.4L229.5,275.3z M248.7,226l-7.1-29.5h-13.9l6.9,17.3l-5.4-2.2l22.3,56.3l-6.9-2.9
				l4.1,10.3h7.5L239.2,222L248.7,226z M230.8,261.1l15.5,20l-14.8-23.5L230.8,261.1z"/>
		</g>
	</g>
	<path class="st0" d="M0,141.1c0,25.7,20.6,36.4,27.2,39.2L18.3,203h186.3l1.6-4H24.1l8.3-21.1l-2-0.6C29.3,176.9,4,168.6,4,141.1
		s25.3-35.8,26.3-36.1l2-0.6l-8.3-21.1h95.1v0h106.1l32.9,15.6L291,83.2h106.1v0h95.1l-8.3,21.1l2,0.6c1.1,0.3,26.3,8.6,26.3,36.1
		s-25.3,35.8-26.3,36.1l-2,0.6l8.3,21.1H310.2l1.6,4h186.3l-8.9-22.7c6.6-2.8,27.2-13.5,27.2-39.2s-20.6-36.4-27.2-39.2l8.9-22.7
		H353l18.3-46.8l-80.2,0l-28.4-13.4l23-11l-5.3,13.5h50l1.6-4h-45.7L293.3,0l-35.2,16.7L223,0l6.9,17.5h-45.7l1.6,4h50L230.5,8
		l23,11l-28.2,13.4l-80.3,0l18.3,46.8H18.3l8.9,22.7C20.6,104.7,0,115.4,0,141.1z M150.8,36.4l75.4,0l32-15.2l32.1,15.2l75.2,0
		l-16.8,42.8h-58.6l-32,15.2l-32-15.2h-58.6L150.8,36.4z"/>
</g>
</svg>
